PathFileType	4	(X/Y/Z)	c:/Users/goper/Files/vsCode/490R/osim_files/C10/C10_Static.trc
DataRate	CameraRate	NumFrames	NumMarkers	Units                	OrigDataRate	OrigDataStartFrame	OrigNumFrames
250.00	250.00	9	36	mm	250.0	740	1971
                Frame#	Time	LPSIS			LASIS			LTH1			LTH2			LTH3			LTH4			LLFE			LMFE			LSH1			LSH2			LSH3			LSH4			LLMAL			LMMAL			LCAL			LMTP5			LTOE			LMTP1			RPSIS			RASIS			RTH1			RTH2			RTH3			RTH4			RLFE			RMFE			RSH1			RSH2			RSH3			RSH4			RLMAL			RMMAL			RCAL			RMTP1			RTOE			RMTP5		
		X1	Y1	Z1	X2	Y2	Z2	X3	Y3	Z3	X4	Y4	Z4	X5	Y5	Z5	X6	Y6	Z6	X7	Y7	Z7	X8	Y8	Z8	X9	Y9	Z9	X10	Y10	Z10	X11	Y11	Z11	X12	Y12	Z12	X13	Y13	Z13	X14	Y14	Z14	X15	Y15	Z15	X16	Y16	Z16	X17	Y17	Z17	X18	Y18	Z18	X19	Y19	Z19	X20	Y20	Z20	X21	Y21	Z21	X22	Y22	Z22	X23	Y23	Z23	X24	Y24	Z24	X25	Y25	Z25	X26	Y26	Z26	X27	Y27	Z27	X28	Y28	Z28	X29	Y29	Z29	X30	Y30	Z30	X31	Y31	Z31	X32	Y32	Z32	X33	Y33	Z33	X34	Y34	Z34	X35	Y35	Z35	X36	Y36	Z36

740	2.95600	-316.00369	1027.64026	445.60431	-177.11676	999.47321	291.58676	-267.28043	796.04211	256.84698	-262.98242	749.95807	246.89432	-206.62120	795.65472	254.41785	-211.27138	748.89526	250.44640	-243.88759	492.85016	273.72562	-228.31328	466.40497	387.71603	-307.30792	418.44299	259.31546	-308.53934	371.35330	249.45433	-245.79259	412.14493	261.69611	-254.77072	368.12628	252.52057	-284.32065	93.03315	239.79640	-272.44650	89.95457	319.73816	-347.62390	38.68624	279.16016	-177.09937	28.20200	206.30565	-121.76237	46.85342	266.36142	-156.22682	26.16069	315.69016	-302.87823	1029.47388	525.41864	-133.32655	997.85553	632.02850	-234.77553	756.96735	690.85760	-228.04277	712.87860	694.19867	-173.65617	759.83704	691.93518	-174.09715	715.84027	695.99670	-214.13620	485.77841	667.35516	-203.64734	463.26752	556.69922	-292.66580	405.29892	690.89697	-289.39371	362.28284	699.92633	-229.98950	400.42676	688.76208	-237.23820	360.16046	697.67963	-273.85867	91.38232	699.54175	-254.89610	89.61142	619.72577	-329.41870	40.68064	664.46478	-134.63147	33.62692	637.20593	-104.48783	45.87288	678.78455	-156.24959	30.68989	740.56519
741	2.96000	-315.98294	1027.63086	445.62061	-177.11618	999.48920	291.56207	-267.31848	796.04010	256.85645	-263.01428	749.95575	246.90703	-206.64201	795.67664	254.43512	-211.30838	748.89990	250.45311	-243.87482	492.86255	273.72766	-228.30347	466.43188	387.72324	-307.30722	418.43808	259.30945	-308.54315	371.37515	249.45435	-245.78680	412.16504	261.70120	-254.74965	368.14581	252.54120	-284.31604	93.05075	239.79060	-272.45410	89.96083	319.72803	-347.62497	38.70709	279.15869	-177.10066	28.22730	206.27924	-121.78973	46.87176	266.35516	-156.15834	26.22851	315.74915	-302.93369	1029.49719	525.40613	-133.30208	997.87512	632.03003	-234.77046	756.99872	690.86639	-228.06285	712.89813	694.19214	-173.63785	759.83759	691.92609	-174.07669	715.84290	695.99982	-214.14008	485.77710	667.35486	-203.53322	463.33859	556.64606	-292.69193	405.31003	690.88525	-289.41431	362.30710	699.91901	-229.99350	400.47760	688.74744	-237.24406	360.18066	697.66882	-273.86359	91.39516	699.52759	-254.89241	89.62115	619.70917	-329.42093	40.70940	664.45355	-134.89755	33.47186	637.15051	-104.49106	45.89277	678.77991	-156.23561	30.70947	740.56799
742	2.96400	-316.06754	1027.66528	445.61310	-177.14206	999.49640	291.58771	-267.34109	796.07196	256.88663	-263.02771	749.96997	246.92068	-206.63986	795.67987	254.43550	-211.31749	748.91376	250.44778	-243.92374	492.86752	273.76401	-228.29146	466.46286	387.71512	-307.32935	418.41553	259.37570	-308.54312	371.37320	249.49065	-245.79979	412.18134	261.70950	-254.74854	368.15256	252.53752	-284.32343	93.05782	239.79225	-272.45651	89.98408	319.72894	-347.64127	38.71038	279.14258	-177.10887	28.22181	206.28716	-121.79829	46.88300	266.35043	-156.20409	26.19574	315.70554	-302.94467	1029.51477	525.39624	-133.29726	997.88611	632.03113	-234.81787	757.01270	690.86517	-228.06638	712.92688	694.20575	-173.66090	759.86841	691.93726	-174.07120	715.87152	695.98901	-214.15637	485.80142	667.36084	-203.63998	463.29855	556.68152	-292.71671	405.31375	690.88000	-289.44577	362.32068	699.92139	-230.00905	400.48581	688.75897	-237.25034	360.20190	697.68335	-273.88266	91.42278	699.51196	-254.88649	89.62823	619.72308	-329.44165	40.71597	664.43665	-134.88135	33.45362	637.13788	-104.48396	45.91821	678.78131	-156.23839	30.72475	740.57556
743	2.96800	-316.12042	1027.68311	445.61099	-177.16234	999.50171	291.57590	-267.34546	796.06378	256.90106	-263.03455	749.99213	246.92084	-206.66159	795.69727	254.44847	-211.31056	748.92303	250.47029	-243.88516	492.88943	273.74930	-228.27167	466.49585	387.71576	-307.31616	418.44592	259.39343	-308.58466	371.38257	249.50410	-245.78374	412.20334	261.70718	-254.74855	368.16504	252.55223	-284.31888	93.07148	239.79453	-272.43234	89.99182	319.72107	-347.66022	38.74532	279.13690	-177.11533	28.24452	206.28093	-121.79546	46.89755	266.33667	-156.17020	26.27173	315.71750	-302.95474	1029.53394	525.41577	-133.25731	997.91022	632.02972	-234.81082	757.02399	690.85278	-228.08427	712.93817	694.18054	-173.66283	759.87048	691.94049	-174.07681	715.89526	695.99634	-214.20010	485.78976	667.33685	-203.62640	463.31543	556.69165	-292.72766	405.34631	690.86829	-289.44971	362.34409	699.89917	-229.98022	400.52371	688.75104	-237.25522	360.21890	697.68469	-273.88708	91.43008	699.49994	-254.87831	89.64285	619.71472	-329.42908	40.74821	664.40466	-134.85150	33.48064	637.17029	-104.48026	45.93362	678.76001	-156.23289	30.73180	740.54547
744	2.97200	-316.08835	1027.68677	445.60406	-177.16687	999.49127	291.58945	-267.38342	796.06042	256.91946	-263.04999	750.00159	246.93503	-206.68036	795.71967	254.43748	-211.34056	748.94006	250.46242	-243.89432	492.88428	273.75894	-228.27342	466.48074	387.72702	-307.34738	418.38205	259.47534	-308.59698	371.35413	249.53853	-245.80396	412.19601	261.72653	-254.73511	368.18152	252.54921	-284.30771	93.08469	239.79156	-272.45441	90.00224	319.70990	-347.67361	38.77912	279.10992	-177.09309	28.22951	206.29875	-121.78747	46.91734	266.32526	-156.14537	26.28826	315.74567	-303.00958	1029.57483	525.40613	-133.25406	997.92542	632.01611	-234.84785	757.04419	690.83875	-228.10953	712.94464	694.16614	-173.61220	759.91785	691.92822	-174.05345	715.92023	695.99170	-214.18631	485.80914	667.34076	-203.65259	463.31107	556.69885	-292.72369	405.36456	690.85699	-289.47202	362.35910	699.88898	-229.99255	400.52390	688.74951	-237.23393	360.24902	697.68445	-273.88766	91.44566	699.48615	-254.87978	89.65325	619.71527	-329.42560	40.78018	664.37842	-134.57524	33.70402	637.19464	-104.46165	45.93861	678.75775	-156.23689	30.75440	740.55438
745	2.97600	-316.10327	1027.70520	445.61984	-177.17877	999.49164	291.58527	-267.37894	796.06396	256.90961	-263.06198	749.98401	246.94675	-206.67278	795.71301	254.44243	-211.36441	748.92108	250.47154	-243.91095	492.87424	273.76227	-228.25520	466.49609	387.72430	-307.32593	418.41675	259.41904	-308.56415	371.37427	249.50702	-245.78398	412.20505	261.72153	-254.73631	368.16858	252.57121	-284.31165	93.06754	239.80246	-272.44623	89.99492	319.70612	-347.66663	38.77833	279.09677	-177.11583	28.23390	206.29817	-121.75806	46.93495	266.29639	-156.14160	26.29896	315.69943	-303.01035	1029.60229	525.40204	-133.22903	997.92920	632.02258	-234.84036	757.04926	690.81824	-228.08133	712.96484	694.15259	-173.58780	759.95624	691.94354	-174.04077	715.91724	695.99866	-214.20424	485.81644	667.32025	-203.67580	463.29730	556.70514	-292.75552	405.36673	690.84607	-289.49713	362.37277	699.87537	-229.97314	400.54135	688.75378	-237.23601	360.24445	697.68170	-273.89517	91.46551	699.48016	-254.87854	89.64227	619.71002	-329.44922	40.81826	664.34784	-134.83862	33.53234	637.14178	-104.47342	45.95418	678.73792	-156.22655	30.74900	740.53290
746	2.98000	-316.13116	1027.70776	445.62204	-177.19930	999.48645	291.59848	-267.43927	796.03839	256.92587	-263.08701	749.98090	246.94553	-206.70416	795.70325	254.44507	-211.39093	748.93018	250.47490	-243.90950	492.87137	273.78189	-228.24014	466.49899	387.71826	-307.33688	418.39810	259.49673	-308.59586	371.32791	249.52834	-245.78842	412.19833	261.73596	-254.74211	368.17773	252.56410	-284.31241	93.05276	239.79295	-272.48010	90.00192	319.71652	-347.74945	38.80136	279.09302	-177.10281	28.22528	206.29741	-121.77511	46.93234	266.30408	-156.17255	26.29501	315.69910	-303.01263	1029.60315	525.41187	-133.24283	997.92401	632.02106	-234.86215	757.07025	690.84503	-228.12988	712.96661	694.16162	-173.63866	759.96906	691.92145	-174.05841	715.92609	695.98712	-214.23618	485.83508	667.32507	-203.67076	463.28427	556.70349	-292.77084	405.37381	690.85657	-289.49606	362.38226	699.87714	-230.00473	400.53845	688.74188	-237.26408	360.25052	697.67712	-273.92737	91.45892	699.46490	-254.88776	89.64308	619.70905	-329.45645	40.82398	664.31702	-134.88692	33.51373	637.13763	-104.47488	45.94346	678.72449	-156.24428	30.74701	740.54486
747	2.98400	-316.09213	1027.69861	445.62534	-177.21870	999.46051	291.59494	-267.43567	796.03601	256.94620	-263.10120	749.96051	246.96642	-206.74712	795.68854	254.45398	-211.40477	748.90509	250.48920	-243.92522	492.86026	273.77142	-228.24423	466.47476	387.72186	-307.33945	418.38376	259.52704	-308.61176	371.32114	249.55145	-245.78760	412.17755	261.73715	-254.75751	368.14511	252.57233	-284.31628	93.04308	239.80609	-272.49908	89.98709	319.71353	-347.75510	38.82240	279.09555	-177.09521	28.22961	206.28238	-121.76932	46.92698	266.30774	-156.18756	26.28626	315.74307	-303.00961	1029.59497	525.42548	-133.25656	997.90027	632.02533	-234.85373	757.04974	690.84448	-228.14090	712.94556	694.16315	-173.67513	759.89948	691.93127	-174.08563	715.89313	696.01721	-214.25264	485.80832	667.33270	-203.67255	463.27591	556.70734	-292.78250	405.36093	690.86401	-289.53622	362.35623	699.87628	-230.01723	400.53812	688.76410	-237.28879	360.22318	697.68134	-273.91437	91.43640	699.46741	-254.88521	89.62495	619.70868	-329.47318	40.81066	664.33118	-134.85078	33.50925	637.10956	-104.48392	45.92863	678.73792	-156.25383	30.72230	740.52515
748	2.98800	-316.15262	1027.68762	445.65237	-177.25169	999.46356	291.60571	-267.48773	796.00958	256.95932	-263.14059	749.95654	246.96448	-206.78853	795.66931	254.47563	-211.46008	748.89972	250.50906	-243.93916	492.83829	273.78061	-228.29681	466.43964	387.75165	-307.38144	418.34427	259.53760	-308.63699	371.29398	249.55742	-245.82376	412.16727	261.75082	-254.77443	368.14340	252.59589	-284.33035	93.02485	239.81558	-272.51889	89.96091	319.71954	-347.74448	38.78577	279.11160	-177.12239	28.20013	206.30556	-121.79343	46.89758	266.33069	-156.17899	26.27307	315.74890	-303.01849	1029.56616	525.45886	-133.29181	997.88416	632.04694	-234.88232	757.02753	690.87646	-228.14954	712.91364	694.20325	-173.66232	759.90594	691.94226	-174.09294	715.87775	696.01923	-214.28725	485.79028	667.33710	-203.69556	463.27832	556.72369	-292.82831	405.34354	690.86963	-289.56454	362.35428	699.88452	-230.07739	400.49957	688.76093	-237.31775	360.20297	697.69824	-273.96170	91.41039	699.47760	-254.92128	89.60478	619.71436	-329.47595	40.77337	664.35065	-134.89848	33.47243	637.11377	-104.49511	45.91598	678.75079	-156.27080	30.70608	740.53674
